<?xml version="1.0" encoding="UTF-8" standalone="no"?>
<!-- Created with Inkscape (http://www.inkscape.org/) -->

<svg
   width="391.15762"
   height="391.15762"
   viewBox="0 0 391.15762 391.15762"
   version="1.1"
   id="svg1"
   xml:space="preserve"
   xmlns:xlink="http://www.w3.org/1999/xlink"
   xmlns="http://www.w3.org/2000/svg"
   xmlns:svg="http://www.w3.org/2000/svg"><defs
     id="defs1"><linearGradient
       id="linearGradient14"><stop
         style="stop-color:#4d5e3e;stop-opacity:1;"
         offset="0"
         id="stop14" /><stop
         style="stop-color:#5a7049;stop-opacity:1;"
         offset="1"
         id="stop15" /></linearGradient><linearGradient
       id="linearGradient10"><stop
         style="stop-color:#ff7f7f;stop-opacity:1;"
         offset="0"
         id="stop10" /><stop
         style="stop-color:#ff9999;stop-opacity:1;"
         offset="1"
         id="stop11" /></linearGradient><linearGradient
       id="linearGradient8"><stop
         style="stop-color:#ff7f7f;stop-opacity:1;"
         offset="0"
         id="stop8" /><stop
         style="stop-color:#ff9999;stop-opacity:1;"
         offset="1"
         id="stop9" /></linearGradient><linearGradient
       xlink:href="#linearGradient8"
       id="linearGradient9"
       x1="1868.2131"
       y1="220.20312"
       x2="2265.1174"
       y2="623.63086"
       gradientUnits="userSpaceOnUse" /><linearGradient
       xlink:href="#linearGradient10"
       id="linearGradient11"
       x1="1868.2131"
       y1="220.20312"
       x2="2265.1174"
       y2="623.63086"
       gradientUnits="userSpaceOnUse" /><linearGradient
       xlink:href="#linearGradient14"
       id="linearGradient15"
       x1="2078.6265"
       y1="906.99615"
       x2="2076.9143"
       y2="226.6543"
       gradientUnits="userSpaceOnUse"
       spreadMethod="repeat" /><linearGradient
       xlink:href="#linearGradient14"
       id="linearGradient17"
       x1="2081.126"
       y1="906.99615"
       x2="2077.5071"
       y2="668.39502"
       gradientUnits="userSpaceOnUse" /><linearGradient
       xlink:href="#linearGradient10"
       id="linearGradient12"
       gradientUnits="userSpaceOnUse"
       x1="1868.2131"
       y1="220.20312"
       x2="2265.1174"
       y2="623.63086" /><linearGradient
       xlink:href="#linearGradient8"
       id="linearGradient13"
       gradientUnits="userSpaceOnUse"
       x1="1868.2131"
       y1="220.20312"
       x2="2265.1174"
       y2="623.63086" /><linearGradient
       xlink:href="#linearGradient14"
       id="linearGradient16"
       gradientUnits="userSpaceOnUse"
       x1="2081.126"
       y1="906.99615"
       x2="2077.5071"
       y2="668.39502" /><linearGradient
       xlink:href="#linearGradient14"
       id="linearGradient18"
       gradientUnits="userSpaceOnUse"
       x1="2078.6265"
       y1="906.99615"
       x2="2076.9143"
       y2="226.6543"
       spreadMethod="repeat" /></defs><g
     id="layer6"
     style="display:inline"
     transform="translate(-130.51579,-212.1674)"><g
       id="g94"
       transform="translate(-1540.5993,-3.96623)"
       style="display:inline"><path
         id="path61"
         style="display:inline;fill:url(#linearGradient11);fill-opacity:1;fill-rule:evenodd;stroke:url(#linearGradient9);stroke-width:15;stroke-opacity:1"
         d="m 2146.133,138.62109 c 25.7063,0.17628 49.1194,14.82833 60.5156,37.8711 7.4097,-3.22234 15.4006,-4.89536 23.4805,-4.91602 28.4606,0.21061 52.7526,20.62712 57.8574,48.62695 25.3779,7.26356 42.8918,30.43909 42.9512,56.83594 -0.1418,8.89189 -2.2834,17.63828 -6.2656,25.58985 20.7073,9.65914 34.0165,30.36432 34.2051,53.21289 -0.1577,14.01566 -5.2788,27.5222 -14.4532,38.11914 24.9501,17.0599 39.9525,45.26788 40.1504,75.49218 -0.2065,25.22563 -10.7421,49.26519 -29.1504,66.51368 4.0933,8.62548 6.3063,18.02272 6.4922,27.56836 -3e-4,37.20227 -30.159,67.361 -67.3613,67.36132 -10.2371,-0.15331 -20.3047,-2.63815 -29.4375,-7.26562 -9.4944,39.28694 -44.629,66.98298 -85.0469,67.04101 -48.3939,2.4e-4 -87.6252,-39.23104 -87.625,-87.625 L 2078.0998,206.6543 c -3e-4,-37.57293 30.4603,-68.03351 68.0332,-68.03321 z m -136.0664,0 c -25.7063,0.17628 -49.1193,14.82833 -60.5156,37.8711 -7.4097,-3.22234 -15.4005,-4.89536 -23.4805,-4.91602 -28.4606,0.21061 -52.7526,20.62712 -57.8574,48.62695 -25.3779,7.26356 -42.8918,30.43909 -42.9512,56.83594 0.1418,8.89189 2.2834,17.63828 6.2656,25.58985 -20.7073,9.65914 -34.0165,30.36432 -34.205,53.21289 0.1576,14.01566 5.2787,27.5222 14.4531,38.11914 -24.9501,17.0599 -39.9525,45.26788 -40.1504,75.49218 0.2065,25.22563 10.7421,49.26519 29.1504,66.51368 -4.0933,8.62548 -6.3063,18.02272 -6.4922,27.56836 3e-4,37.20227 30.159,67.361 67.3613,67.36132 10.2371,-0.15331 20.3047,-2.63815 29.4375,-7.26562 9.4944,39.28694 44.629,66.98298 85.0469,67.04101 48.394,2.4e-4 87.6252,-39.23104 87.625,-87.625 l 14.3457,-396.39257 c 3e-4,-37.57293 -30.4603,-68.03351 -68.0332,-68.03321 z" /><path
         id="path57"
         style="fill:url(#linearGradient17);fill-opacity:1;stroke:none;stroke-width:15;stroke-linecap:round;stroke-linejoin:round;stroke-dasharray:none;stroke-opacity:1"
         d="m 2077.5732,906.99617 c 0,0 -54.4459,-253.60325 -308.0492,-219.21637 0,0 83.1017,236.40981 246.4393,144.71146 m 62.6632,74.50491 c 0,0 54.4459,-253.60325 308.0492,-219.21637 0,0 -83.1017,236.40981 -246.4393,144.71146" /><path
         id="path59"
         style="display:inline;fill:none;stroke:url(#linearGradient15);stroke-width:15;stroke-linecap:round;stroke-linejoin:round;stroke-dasharray:none;stroke-opacity:1;paint-order:normal"
         d="m 2078.0998,580.27862 -1.1856,-353.62432 m 0,529.85709 1.1856,-176.23277 c 0,0 -15.3316,-41.53528 -53.9487,-77.60692 -39.9657,-37.33126 -76.1837,-68.02522 -66.566,-133.01273 m 121.0414,537.3372 -1.7123,-150.48478 c 0,0 0.5928,-88.11638 -170.9094,-250.73768 m 172.095,74.50491 1.1855,-353.62432 m 0,529.85709 -1.1855,-176.23277 c 0,0 15.3315,-41.53528 53.9486,-77.60692 39.9657,-37.33126 76.1837,-68.02522 66.566,-133.01273 m -119.9879,537.3372 0.6588,-150.48478 c 0,0 -0.5928,-88.11638 170.9095,-250.73768" /></g><path
       id="rect418"
       style="display:inline;fill:#1a1a1a;fill-rule:evenodd"
       d="M -5341.4297,-8229.9258 V 3003.1211 H 7771.4355 V -8229.9258 Z m 5222.27736,4827.4102 H 2929.8184 v 1942.3574 H -119.15234 Z" /><rect
       style="display:inline;fill:#ffffff;fill-rule:evenodd;stroke-width:1"
       id="rect6"
       width="391.15759"
       height="391.15759"
       x="130.51579"
       y="212.1674"
       ry="249.99998"
       rx="249.99998" /><g
       id="g9"
       transform="matrix(0.36833181,0,0,0.36833181,-439.33567,213.85639)"
       style="display:inline;stroke-width:2.71494"><path
         id="path6"
         style="display:inline;fill:url(#linearGradient12);fill-opacity:1;fill-rule:evenodd;stroke:url(#linearGradient13);stroke-width:40.7241;stroke-opacity:1"
         d="m 2146.133,138.62109 c 25.7063,0.17628 49.1194,14.82833 60.5156,37.8711 7.4097,-3.22234 15.4006,-4.89536 23.4805,-4.91602 28.4606,0.21061 52.7526,20.62712 57.8574,48.62695 25.3779,7.26356 42.8918,30.43909 42.9512,56.83594 -0.1418,8.89189 -2.2834,17.63828 -6.2656,25.58985 20.7073,9.65914 34.0165,30.36432 34.2051,53.21289 -0.1577,14.01566 -5.2788,27.5222 -14.4532,38.11914 24.9501,17.0599 39.9525,45.26788 40.1504,75.49218 -0.2065,25.22563 -10.7421,49.26519 -29.1504,66.51368 4.0933,8.62548 6.3063,18.02272 6.4922,27.56836 -3e-4,37.20227 -30.159,67.361 -67.3613,67.36132 -10.2371,-0.15331 -20.3047,-2.63815 -29.4375,-7.26562 -9.4944,39.28694 -44.629,66.98298 -85.0469,67.04101 -48.3939,2.4e-4 -87.6252,-39.23104 -87.625,-87.625 L 2078.0998,206.6543 c -3e-4,-37.57293 30.4603,-68.03351 68.0332,-68.03321 z m -136.0664,0 c -25.7063,0.17628 -49.1193,14.82833 -60.5156,37.8711 -7.4097,-3.22234 -15.4005,-4.89536 -23.4805,-4.91602 -28.4606,0.21061 -52.7526,20.62712 -57.8574,48.62695 -25.3779,7.26356 -42.8918,30.43909 -42.9512,56.83594 0.1418,8.89189 2.2834,17.63828 6.2656,25.58985 -20.7073,9.65914 -34.0165,30.36432 -34.205,53.21289 0.1576,14.01566 5.2787,27.5222 14.4531,38.11914 -24.9501,17.0599 -39.9525,45.26788 -40.1504,75.49218 0.2065,25.22563 10.7421,49.26519 29.1504,66.51368 -4.0933,8.62548 -6.3063,18.02272 -6.4922,27.56836 3e-4,37.20227 30.159,67.361 67.3613,67.36132 10.2371,-0.15331 20.3047,-2.63815 29.4375,-7.26562 9.4944,39.28694 44.629,66.98298 85.0469,67.04101 48.394,2.4e-4 87.6252,-39.23104 87.625,-87.625 l 14.3457,-396.39257 c 3e-4,-37.57293 -30.4603,-68.03351 -68.0332,-68.03321 z" /><path
         id="path7"
         style="fill:url(#linearGradient16);fill-opacity:1;stroke:none;stroke-width:40.7241;stroke-linecap:round;stroke-linejoin:round;stroke-dasharray:none;stroke-opacity:1"
         d="m 2077.5732,906.99617 c 17.3857,-214.72182 -484.757,-300.06945 -211.3641,-79.99539 41.9537,33.77159 104.9255,34.56645 149.7542,5.49048 m 62.6632,74.50491 c -17.3857,-214.72182 484.757,-300.06945 211.3641,-79.99539 -41.9537,33.77159 -104.9255,34.56645 -149.7542,5.49048" /><path
         id="path8"
         style="display:inline;fill:url(#linearGradient18);fill-rule:nonzero;stroke:none;stroke-width:40.7241;stroke-linecap:round;stroke-linejoin:round;stroke-dasharray:none;stroke-opacity:1;paint-order:normal"
         d="m 2085.3033,580.25447 c -0.04,-11.78748 -0.1501,-44.76836 -0.2372,-70.72487 -0.1065,-31.7901 -0.2371,-70.72486 -0.3556,-106.08729 -0.1186,-35.36243 1.3636,-74.33937 -0.3557,-106.0873 -1.4075,-25.98904 -6.2005,-58.91726 -7.4406,-70.70071 -1.1611,11.7915 -5.7332,44.75112 -6.9663,70.74902 -1.5065,31.75874 0.2371,70.72486 0.3556,106.08729 0.1186,35.36243 0.2491,74.2972 0.3557,106.0873 0.087,25.95651 0.1976,58.93738 0.2371,70.72486 a 7.2034998,7.2034998 90 0 0 14.407,-0.0483 z m -1.1858,176.30538 c 0.04,-5.87443 0.1236,-18.36884 0.2372,-35.24655 0.1882,-27.97486 0.5659,-84.13094 0.9484,-140.98622 0,-0.43368 -0,-0.86947 -0.079,-1.29665 -0.075,-0.42718 -0.2164,-0.83942 -0.3666,-1.24627 -0.1161,-0.31452 -4.9027,-12.43778 -13.0235,-26.40321 -7.9968,-13.75216 -21.4037,-34.7376 -42.0637,-54.72505 -10.2849,-9.94999 -19.3381,-18.52675 -27.8568,-27.5607 -9.1444,-9.69747 -16.2385,-18.45216 -21.9325,-27.39749 -7.1293,-11.20011 -11.1257,-21.27543 -13.9293,-30.72791 -0.7354,-2.47936 -1.3648,-4.83418 -1.9331,-7.05533 -3.658,-14.29857 -6.2925,-27.1321 -6.5336,-34.2555 -2.1494,6.32299 -8.2285,19.50572 -7.7477,36.15395 0.076,2.61829 0.3048,5.44534 0.7276,8.43549 1.6187,11.44554 5.8556,23.99535 14.0026,37.12674 6.4568,10.40726 14.6682,20.11649 24.5931,30.08606 9.121,9.16213 18.9913,17.86853 29.3711,27.22629 19.8337,17.83481 33.2703,36.90434 40.8478,49.9356 7.6348,13.12966 12.0785,24.4645 11.9624,24.14998 -0.1502,-0.40685 -0.2917,-0.81909 -0.3666,-1.24627 -0.075,-0.42718 -0.082,-0.86297 -0.079,-1.29665 -0.3825,56.85528 -0.7603,113.01136 -0.9485,140.98622 -0.1136,16.87771 -0.1976,29.37212 -0.2371,35.24655 a 7.2034998,7.2034998 90 0 0 14.4066,0.0969 z m 1.712,150.35436 c -0.057,-5.01616 -0.1902,-16.72053 -0.3424,-30.09696 -0.3042,-26.73345 -0.9124,-80.18098 -1.3689,-120.30052 0.017,-0.74916 0.2859,-6.35562 -2.1438,-17.74305 -2.5441,-11.92339 -7.8744,-28.89485 -18.5655,-50.48623 -16.2138,-32.74488 -40.5136,-67.3825 -68.2253,-98.58573 -15.6122,-17.57927 -32.6951,-34.20957 -49.1709,-49.17137 -16.4056,-14.89808 -30.827,-26.89614 -40.0079,-34.75664 8.2649,8.67462 20.9127,22.7988 35.0369,39.55025 14.671,17.39993 28.571,34.79048 43.0471,53.56833 25.7363,33.38408 47.6974,65.04487 64.0479,97.07134 10.4239,20.41766 15.8801,35.88598 18.7284,46.43475 2.7703,10.25978 2.8421,14.60804 2.8458,14.06455 l 3e-4,0.13043 c 0.4566,40.12928 1.0654,93.63497 1.3698,120.38781 0.1522,13.37643 0.2854,25.0808 0.3425,30.09696 a 7.2034998,7.2034998 90 0 0 14.406,-0.16392 z m -0.5262,-326.61144 c 0.039,-11.78748 0.15,-44.76836 0.2371,-70.72486 0.1065,-31.79011 0.2371,-70.72487 0.3556,-106.0873 0.1186,-35.36243 1.8621,-74.32856 0.3557,-106.0873 -1.2332,-25.99789 -5.8053,-58.95751 -6.9664,-70.74901 -1.2401,11.78345 -6.0331,44.71167 -7.4406,70.70071 -1.7193,31.74793 -0.2371,70.72487 -0.3556,106.0873 -0.1186,35.36243 -0.2491,74.2972 -0.3557,106.0873 -0.087,25.95651 -0.1975,58.93738 -0.2371,70.72486 a 7.2034998,7.2034998 90 0 0 14.407,0.0483 z m 1.1853,176.16016 c -0.04,-5.87442 -0.1235,-18.36883 -0.2371,-35.24655 -0.1866,-27.73871 -0.5595,-83.18485 -0.9387,-139.54653 1.3104,-3.13411 5.3817,-12.51278 11.5071,-23.04675 7.5776,-13.03127 21.0141,-32.10079 40.8478,-49.9356 10.3798,-9.35776 20.2501,-18.06416 29.3711,-27.22629 9.9249,-9.96957 18.1363,-19.6788 24.5931,-30.08606 8.147,-13.13139 12.3839,-25.6812 14.0026,-37.12674 0.4228,-2.99015 0.652,-5.8172 0.7276,-8.43549 0.4808,-16.64823 -5.5983,-29.83096 -7.7477,-36.15395 -0.2411,7.1234 -2.8756,19.95693 -6.5336,34.2555 -0.5683,2.22115 -1.1977,4.57597 -1.9331,7.05533 -2.8036,9.45248 -6.8,19.5278 -13.9293,30.72791 -5.694,8.94533 -12.7881,17.70002 -21.9325,27.39749 -8.5187,9.03395 -17.5719,17.61071 -27.8568,27.5607 -20.66,19.98746 -34.0669,40.97289 -42.0636,54.72505 -8.1208,13.96544 -12.9074,26.08871 -13.0235,26.40322 -0.1502,0.40686 -0.2917,0.81908 -0.3666,1.24626 -0.075,0.42718 -0.082,0.86297 -0.079,1.29665 0.3824,56.85528 0.7602,113.01135 0.9484,140.98621 0.1135,16.87772 0.1975,29.37213 0.2371,35.24656 a 7.2034998,7.2034998 90 0 0 14.4066,-0.0969 z m -0.6587,150.56478 c 0.022,-5.01616 0.073,-16.72054 0.1318,-30.09696 0.1171,-26.75285 0.3514,-80.25854 0.527,-120.38781 1e-4,-0.0267 1e-4,-0.0533 -10e-5,-0.08 0,0.54349 0.075,-3.80477 2.8458,-14.06455 2.8483,-10.54877 8.3045,-26.01709 18.7284,-46.43475 16.3505,-32.02647 38.3116,-63.68726 64.0479,-97.07134 14.4762,-18.77785 28.3762,-36.1684 43.0472,-53.56833 14.1242,-16.75145 26.772,-30.87563 35.0369,-39.55025 -9.1809,7.8605 -23.6023,19.85855 -40.0079,34.75663 -16.4759,14.9618 -33.5588,31.59211 -49.171,49.17138 -27.7117,31.20323 -52.0114,65.84084 -68.2253,98.58572 -10.6911,21.59139 -16.0214,38.56284 -18.5655,50.48624 -2.45,11.48256 -2.1556,17.08716 -2.1435,17.76081 -0.1756,40.12319 -0.4097,93.59248 -0.5268,120.33319 -0.059,13.37642 -0.1098,25.0808 -0.1317,30.09695 a 7.2034998,7.2034998 90 0 0 14.4068,0.0631 z" /></g></g><style
     id="style1">
		.s0 { fill: #041328 } 
		.s1 { fill: #535051 } 
		.s2 { fill: #565354 } 
		.s3 { fill: #585556 } 
		.s4 { fill: #5c595a } 
		.s5 { fill: #5e5c5d } 
		.s6 { fill: #615e5f } 
		.s7 { fill: #656263 } 
		.s8 { fill: #676565 } 
		.s9 { fill: #6a6768 } 
		.s10 { fill: #6e6b6c } 
		.s11 { fill: #706e6e } 
		.s12 { fill: #737071 } 
		.s13 { fill: #757374 } 
		.s14 { fill: #797777 } 
		.s15 { fill: #7b797a } 
		.s16 { fill: #7e7c7c } 
		.s17 { fill: #828080 } 
		.s18 { fill: #848283 } 
		.s19 { fill: #878585 } 
		.s20 { fill: #8b8989 } 
		.s21 { fill: #8d8b8c } 
		.s22 { fill: #908e8e } 
		.s23 { fill: #939292 } 
		.s24 { fill: #969495 } 
		.s25 { fill: #999797 } 
		.s26 { fill: #9c9b9b } 
		.s27 { fill: #9f9d9e } 
		.s28 { fill: #a1a0a0 } 
		.s29 { fill: #a5a4a4 } 
		.s30 { fill: #a8a6a7 } 
		.s31 { fill: #aaa9a9 } 
		.s32 { fill: #adabac } 
		.s33 { fill: #b1afb0 } 
		.s34 { fill: #b3b2b2 } 
		.s35 { fill: #b6b4b5 } 
		.s36 { fill: #b9b8b9 } 
		.s37 { fill: #bcbbbb } 
		.s38 { fill: #bebdbe } 
		.s39 { fill: #c2c1c2 } 
		.s40 { fill: #c5c4c4 } 
		.s41 { fill: #c7c6c7 } 
		.s42 { fill: #cbcacb } 
		.s43 { fill: #cecdcd } 
		.s44 { fill: #d0cfd0 } 
		.s45 { fill: #d4d3d3 } 
		.s46 { fill: #d7d6d6 } 
		.s47 { fill: #d9d8d9 } 
		.s48 { fill: #dddcdc } 
		.s49 { fill: #dfdfdf } 
		.s50 { fill: #e2e1e2 } 
		.s51 { fill: #e4e4e4 } 
		.s52 { fill: #e8e8e8 } 
		.s53 { fill: #ebeaeb } 
		.s54 { fill: #ededed } 
		.s55 { fill: #f1f1f1 } 
		.s56 { fill: #f4f3f3 } 
		.s57 { fill: #f6f6f6 } 
		.s58 { fill: #fafafa } 
		.s59 { fill: #fcfcfc } 
		.s60 { fill: #ffffff } 
		.s61 { fill: none;stroke: #ffffff;stroke-miterlimit:10;stroke-width: .8 } 
	</style></svg>
